<svg width="213" height="28" viewBox="0 0 213 28" fill="none" xmlns="http://www.w3.org/2000/svg">
<path d="M0.0188477 3.5H5.11885C6.50218 3.5 7.65218 3.88333 8.56885 4.65C9.48551 5.41667 9.94385 6.50833 9.94385 7.925C9.94385 8.59167 9.83551 9.225 9.61885 9.825C9.40218 10.425 8.96051 10.95 8.29385 11.4L8.26885 11.45V11.475C9.00218 11.8083 9.61051 12.3417 10.0938 13.075C10.5938 13.8083 10.8438 14.7417 10.8438 15.875C10.8438 16.7417 10.6688 17.5667 10.3188 18.35C9.96885 19.1167 9.39385 19.75 8.59385 20.25C7.79385 20.75 6.76051 21 5.49385 21H0.0188477V3.5ZM3.96885 10.675C4.91885 10.675 5.61885 10.5 6.06885 10.15C6.51885 9.8 6.74385 9.2 6.74385 8.35C6.74385 7.56667 6.53551 7.025 6.11885 6.725C5.70218 6.40833 5.06885 6.25 4.21885 6.25H2.76885V10.675H3.96885ZM4.29385 18.475C5.06051 18.475 5.67718 18.4167 6.14385 18.3C6.62718 18.1667 7.00218 17.9083 7.26885 17.525C7.55218 17.1417 7.69385 16.575 7.69385 15.825C7.69385 14.875 7.40218 14.225 6.81885 13.875C6.23551 13.5083 5.46885 13.325 4.51885 13.325H2.76885V18.475H4.29385ZM15.464 17.275C15.464 17.7417 15.589 18.1083 15.839 18.375C16.1056 18.625 16.489 18.75 16.989 18.75C17.7556 18.75 18.7806 18.4167 20.064 17.75L21.064 20.125C20.464 20.5083 19.7806 20.8 19.014 21C18.2473 21.2 17.4806 21.3 16.714 21.3C15.4806 21.3 14.4973 21 13.764 20.4C13.0473 19.7833 12.689 18.8667 12.689 17.65V12.525C12.689 11.175 13.1056 10.125 13.939 9.375C14.789 8.625 15.9056 8.25 17.289 8.25C18.6723 8.25 19.7473 8.625 20.514 9.375C21.2973 10.1083 21.689 11.1333 21.689 12.45V16.25L15.464 16.575V17.275ZM18.914 12.5C18.914 12 18.7556 11.6167 18.439 11.35C18.1223 11.0833 17.7306 10.95 17.264 10.95C16.6306 10.95 16.1723 11.1167 15.889 11.45C15.6056 11.7833 15.464 12.15 15.464 12.55V14.05L18.914 13.825V12.5ZM37.4538 13.4C37.4538 12.5 37.3288 11.85 37.0788 11.45C36.8455 11.05 36.4621 10.85 35.9288 10.85C35.5455 10.85 35.0288 10.9667 34.3788 11.2L33.9538 11.375C33.9871 11.475 34.0121 11.5917 34.0288 11.725C34.0455 11.8583 34.0538 11.9833 34.0538 12.1V21H31.3038V13.475C31.3038 12.6417 31.1121 12 30.7288 11.55C30.3455 11.1 29.8288 10.875 29.1788 10.875C28.5955 10.875 27.9871 11.0583 27.3538 11.425V21H24.6038V8.475H27.0288L27.3538 8.65C27.9038 8.4 28.5288 8.275 29.2288 8.275C29.7955 8.275 30.3455 8.375 30.8788 8.575C31.4121 8.75833 31.8788 9.05833 32.2788 9.475C32.5121 9.34167 32.8621 9.15833 33.3288 8.925C34.3121 8.475 35.2621 8.25 36.1788 8.25C37.3621 8.25 38.3288 8.61667 39.0788 9.35C39.8288 10.0667 40.2038 11.0667 40.2038 12.35V21H37.4538V13.4ZM50.0921 3.5H53.1921L56.0671 15.6L58.8671 3.5H62.0421L57.6921 21H54.4671L50.0921 3.5ZM65.3616 6.2C64.9616 6.2 64.6116 6.05 64.3116 5.75C64.0116 5.45 63.8616 5.1 63.8616 4.7C63.8616 4.31667 64.0116 3.98333 64.3116 3.7C64.6116 3.4 64.9616 3.25 65.3616 3.25C65.745 3.25 66.0783 3.4 66.3616 3.7C66.6616 3.98333 66.8116 4.31667 66.8116 4.7C66.8116 5.1 66.6616 5.45 66.3616 5.75C66.0783 6.05 65.745 6.2 65.3616 6.2ZM63.9116 8.475H66.6616V21H63.9116V8.475ZM76.8958 13.125C76.8958 12.4583 76.7041 11.925 76.3208 11.525C75.9541 11.1083 75.4541 10.9 74.8208 10.9C74.3041 10.9 73.7458 11.05 73.1458 11.35V21H70.4208V8.475H72.8458L73.1708 8.625C73.8708 8.39167 74.5958 8.275 75.3458 8.275C76.1791 8.275 76.9041 8.425 77.5208 8.725C78.1875 9.025 78.7041 9.475 79.0708 10.075C79.4541 10.675 79.6458 11.4333 79.6458 12.35V21H76.8958V13.125ZM83.2708 12.35C83.2708 10.6 83.9791 9.4 85.3958 8.75C86.0791 8.41667 86.8791 8.25 87.7958 8.25C88.5791 8.25 89.2375 8.35 89.7708 8.55V3.5H92.4958V21L91.1208 21.125C90.0375 21.2417 89.1875 21.3 88.5708 21.3C87.9541 21.3 87.3708 21.2417 86.8208 21.125C86.2875 21.0083 85.7541 20.8167 85.2208 20.55C84.6208 20.25 84.1458 19.8083 83.7958 19.225C83.4458 18.6417 83.2708 17.925 83.2708 17.075V12.35ZM89.7708 11.45C89.1708 11.1667 88.6125 11.025 88.0958 11.025C87.4958 11.025 86.9958 11.2167 86.5958 11.6C86.1958 11.9833 85.9958 12.5667 85.9958 13.35V17.25C85.9958 17.6833 86.2291 18.0417 86.6958 18.325C87.1625 18.6083 87.7541 18.75 88.4708 18.75C88.9208 18.75 89.3541 18.6917 89.7708 18.575V11.45ZM104.754 16.4C104.754 17.8 104.371 18.9583 103.604 19.875C102.837 20.7917 101.679 21.25 100.129 21.25C98.579 21.25 97.404 20.7917 96.604 19.875C95.8207 18.9417 95.429 17.7833 95.429 16.4V13.1C95.429 11.5167 95.829 10.3083 96.629 9.475C97.4457 8.625 98.6123 8.2 100.129 8.2C101.579 8.2 102.712 8.64167 103.529 9.525C104.346 10.3917 104.754 11.5833 104.754 13.1V16.4ZM102.029 13.1C102.029 12.2167 101.846 11.6417 101.479 11.375C101.112 11.1083 100.662 10.975 100.129 10.975C98.829 10.975 98.179 11.6833 98.179 13.1V16.65C98.179 17.3167 98.3623 17.8 98.729 18.1C99.0957 18.4 99.5623 18.55 100.129 18.55C100.679 18.55 101.129 18.3917 101.479 18.075C101.846 17.7583 102.029 17.2833 102.029 16.65V13.1ZM123.243 21C121.443 21.1833 120.143 21.275 119.343 21.275C117.593 21.275 116.201 20.95 115.168 20.3C114.135 19.65 113.618 18.475 113.618 16.775V14.7C113.618 13.05 114.193 11.9417 115.343 11.375C115.893 11.1083 116.518 10.975 117.218 10.975C117.835 10.975 118.443 11.0583 119.043 11.225C119.643 11.3917 120.126 11.575 120.493 11.775C120.493 11.1583 120.243 10.7417 119.743 10.525C119.243 10.2917 118.601 10.175 117.818 10.175L118.043 8.275C119.643 8.275 120.818 8.53333 121.568 9.05C122.335 9.55 122.801 10.15 122.968 10.85C123.151 11.55 123.243 12.45 123.243 13.55V21ZM120.493 14.7C120.193 14.4833 119.768 14.2833 119.218 14.1C118.685 13.9 118.193 13.8 117.743 13.8C117.343 13.8 117.018 13.9 116.768 14.1C116.518 14.3 116.393 14.6167 116.393 15.05V16.425C116.393 17.9417 117.285 18.7 119.068 18.7C119.585 18.7 120.06 18.6583 120.493 18.575V14.7ZM135.418 16.4C135.418 17.8 135.035 18.9583 134.268 19.875C133.501 20.7917 132.343 21.25 130.793 21.25C129.243 21.25 128.068 20.7917 127.268 19.875C126.485 18.9417 126.093 17.7833 126.093 16.4V13.1C126.093 11.5167 126.493 10.3083 127.293 9.475C128.11 8.625 129.276 8.2 130.793 8.2C132.243 8.2 133.376 8.64167 134.193 9.525C135.01 10.3917 135.418 11.5833 135.418 13.1V16.4ZM132.693 13.1C132.693 12.2167 132.51 11.6417 132.143 11.375C131.776 11.1083 131.326 10.975 130.793 10.975C129.493 10.975 128.843 11.6833 128.843 13.1V16.65C128.843 17.3167 129.026 17.8 129.393 18.1C129.76 18.4 130.226 18.55 130.793 18.55C131.343 18.55 131.793 18.3917 132.143 18.075C132.51 17.7583 132.693 17.2833 132.693 16.65V13.1Z" fill="black" fill-opacity="0.44"/>
<path d="M146.732 6.471H149.748L149.922 6.674C150.135 6.57733 150.454 6.48067 150.879 6.384C151.324 6.28733 151.749 6.239 152.155 6.239C153.953 6.239 155.316 6.761 156.244 7.805C157.192 8.849 157.665 10.2023 157.665 11.865V15.896C157.665 17.6553 157.172 19.0087 156.186 19.956C155.2 20.884 153.895 21.348 152.271 21.348C151.749 21.348 151.353 21.319 151.082 21.261C150.812 21.2223 150.58 21.1643 150.386 21.087C150.193 21.029 150.038 20.9807 149.922 20.942V26.452L146.732 27.09V6.471ZM154.475 11.749C154.475 10.9757 154.301 10.386 153.953 9.98C153.625 9.574 153.064 9.371 152.271 9.371C151.479 9.371 150.889 9.574 150.502 9.98C150.116 10.3667 149.922 10.908 149.922 11.604V15.548C149.922 16.3213 150.087 16.9497 150.415 17.433C150.763 17.9163 151.382 18.158 152.271 18.158C153.161 18.158 153.75 17.926 154.04 17.462C154.33 16.998 154.475 16.2247 154.475 15.142V11.749ZM171.038 21C168.95 21.2127 167.442 21.319 166.514 21.319C164.484 21.319 162.87 20.942 161.671 20.188C160.473 19.434 159.873 18.071 159.873 16.099V13.692C159.873 11.778 160.54 10.4923 161.874 9.835C162.512 9.52567 163.237 9.371 164.049 9.371C164.765 9.371 165.47 9.46767 166.166 9.661C166.862 9.85433 167.423 10.067 167.848 10.299C167.848 9.58367 167.558 9.10033 166.978 8.849C166.398 8.57833 165.654 8.443 164.745 8.443L165.006 6.239C166.862 6.239 168.225 6.53867 169.095 7.138C169.985 7.718 170.526 8.414 170.719 9.226C170.932 10.038 171.038 11.082 171.038 12.358V21ZM167.848 13.692C167.5 13.4407 167.007 13.2087 166.369 12.996C165.751 12.764 165.18 12.648 164.658 12.648C164.194 12.648 163.817 12.764 163.527 12.996C163.237 13.228 163.092 13.5953 163.092 14.098V15.693C163.092 17.4523 164.127 18.332 166.195 18.332C166.795 18.332 167.346 18.2837 167.848 18.187V13.692ZM176.085 3.832C175.621 3.832 175.215 3.658 174.867 3.31C174.519 2.962 174.345 2.556 174.345 2.092C174.345 1.64733 174.519 1.26067 174.867 0.931999C175.215 0.583999 175.621 0.409999 176.085 0.409999C176.529 0.409999 176.916 0.583999 177.245 0.931999C177.593 1.26067 177.767 1.64733 177.767 2.092C177.767 2.556 177.593 2.962 177.245 3.31C176.916 3.658 176.529 3.832 176.085 3.832ZM174.403 6.471H177.593V21H174.403V6.471ZM189.464 11.865C189.464 11.0917 189.242 10.473 188.797 10.009C188.372 9.52567 187.792 9.284 187.057 9.284C186.458 9.284 185.81 9.458 185.114 9.806V21H181.953V6.471H184.766L185.143 6.645C185.955 6.37433 186.796 6.239 187.666 6.239C188.633 6.239 189.474 6.413 190.189 6.761C190.963 7.109 191.562 7.631 191.987 8.327C192.432 9.023 192.654 9.90267 192.654 10.966V21H189.464V11.865ZM198.831 16.679C198.831 17.2203 198.976 17.6457 199.266 17.955C199.576 18.245 200.02 18.39 200.6 18.39C201.49 18.39 202.679 18.0033 204.167 17.23L205.327 19.985C204.631 20.4297 203.839 20.768 202.949 21C202.06 21.232 201.171 21.348 200.281 21.348C198.851 21.348 197.71 21 196.859 20.304C196.028 19.5887 195.612 18.5253 195.612 17.114V11.169C195.612 9.603 196.096 8.385 197.062 7.515C198.048 6.645 199.344 6.21 200.948 6.21C202.553 6.21 203.8 6.645 204.689 7.515C205.598 8.36567 206.052 9.55467 206.052 11.082V15.49L198.831 15.867V16.679ZM202.833 11.14C202.833 10.56 202.65 10.1153 202.282 9.806C201.915 9.49667 201.461 9.342 200.919 9.342C200.185 9.342 199.653 9.53533 199.324 9.922C198.996 10.3087 198.831 10.734 198.831 11.198V12.938L202.833 12.677V11.14ZM209.433 0.699999H212.623V21H209.433V0.699999Z" fill="#FF6C22"/>
</svg>
